<?xml version="1.0" encoding="UTF-8" standalone="no"?><!DOCTYPE svg PUBLIC "-//W3C//DTD SVG 1.1//EN" "http://www.w3.org/Graphics/SVG/1.1/DTD/svg11.dtd"><svg width="31.9px" height="44px" viewBox="0 0 32 44" version="1.1" xmlns="http://www.w3.org/2000/svg" xmlns:xlink="http://www.w3.org/1999/xlink" xml:space="preserve" xmlns:serif="http://www.serif.com/" style="fill-rule:evenodd;clip-rule:evenodd;stroke-linejoin:round;stroke-miterlimit:1.41421;"><path id="Pin-Icon" serif:id="Pin Icon" d="M31.021,20.93c-3.607,11.846 -15.021,23.07 -15.021,23.07c0,0 -11.374,-11.195 -15.001,-23.015c-0.612,-1.663 -0.964,-3.54 -0.964,-5.41c0,-8.652 7.148,-15.575 15.965,-15.575c8.817,0 15.965,6.923 15.965,15.575c0,1.85 -0.344,3.708 -0.944,5.355Zm-15.021,-11.764c-3.63,0 -6.573,2.873 -6.573,6.417c0,3.544 2.943,6.417 6.573,6.417c3.631,0 6.574,-2.873 6.574,-6.417c0,-3.544 -2.943,-6.417 -6.574,-6.417Z" style="fill:#0014ff;"/></svg>